<svg width="128" height="34" viewBox="0 0 128 34" fill="none" xmlns="http://www.w3.org/2000/svg">
<path d="M15.1294 0.457214C6.21145 0.457214 0 6.78415 0 16.9073C0 27.0304 6.09596 33.2418 15.0692 33.2418C22.8925 33.2418 28.3608 30.3344 29.7416 22.5111H23.2189C22.3451 26.3475 18.9658 28.0196 15.0692 28.0196C11.5442 28.0196 7.58229 25.9508 7.24585 19.5987H29.9124V17.0228C29.9124 6.43768 23.5854 0.457214 15.1294 0.457214ZM7.24585 14.9439C7.24585 9.78694 10.9064 5.74975 15.0692 5.74975C20.5525 5.74975 23.2189 9.92754 23.2189 14.9439H7.24585Z" fill="#3F52FF"/>
<path d="M78.6398 24.6699L78.9311 1.03427H69.3352L56.9023 29.4252C56.6261 27.7079 56.5357 25.7696 56.4805 23.5753C56.3901 20.4118 55.4862 18.1974 52.6843 17.2935C55.7122 15.9377 57.3843 13.2262 57.3843 9.70118C57.3843 4.27809 53.4526 1.02423 47.0353 1.02423H31.6246V32.6589H37.6352V19.5983H46.6285C49.2949 19.5983 50.4699 20.7281 50.5151 23.4849C50.6055 28.5464 50.6958 30.9416 51.5997 32.6589H55.4862V32.669H61.7831L73.2167 6.8641V32.669H80.4475L92.0319 6.8641V32.669H97.6357L97.6859 1.03427H88.9638L78.6398 24.6699ZM46.5884 14.9435H37.6402V5.76944H46.5884C49.5711 5.76944 51.4691 7.35117 51.4691 10.3339C51.4691 13.3166 49.5711 14.9435 46.5884 14.9435Z" fill="#3F52FF"/>
<path d="M113.358 0.436737C104.681 0.436737 98.6702 6.22137 98.6702 16.8416C98.6702 27.4618 104.681 33.2464 113.358 33.2464C122.035 33.2464 128 27.4618 128 16.8416C128 6.22137 121.989 0.436737 113.358 0.436737ZM113.358 27.9087C108.251 27.9087 105.318 24.4339 105.318 16.8416C105.318 9.24926 108.251 5.77447 113.358 5.77447C118.464 5.77447 121.352 9.24926 121.352 16.8416C121.352 24.4339 118.464 27.9087 113.358 27.9087Z" fill="#3F52FF"/>
</svg>
